<svg height="512" viewBox="0 0 64 64" width="512" xmlns="http://www.w3.org/2000/svg"><g id="Fill_Outline" data-name="Fill Outline"><g id="color"><g><g><path d="m27.678 12.322h6a0 0 0 0 1 0 0v53a3 3 0 0 1 -3 3 3 3 0 0 1 -3-3v-53a0 0 0 0 1 0 0z" fill="#f9e109" transform="matrix(.707 .707 -.707 .707 37.497 -9.882)"/><path d="m31 34h6v6h-6z" fill="#fcbc04" transform="matrix(.707 -.707 .707 .707 -16.205 34.879)"/><path d="m48.355 18.4-2.981 2.981a3.993 3.993 0 0 1 -.077 5.562l-29.176 29.178a3 3 0 0 1 -4.353-.121 2.74 2.74 0 0 1 -.406-.609l-.483.484a3 3 0 0 0 4.242 4.242l37.479-37.472z" fill="#fcbc04"/><path d="m43.322 3a44.651 44.651 0 0 0 -12.012 21.883l-.008.037 1.854-1.491a12.47 12.47 0 0 1 8.044-2.751l4.243-4.243 9.9 9.9 5.657-5.657z" fill="#93999a"/><path d="m54.757 11.607h4a2 2 0 0 1 2 2v2a0 0 0 0 1 0 0h-8a0 0 0 0 1 0 0v-2a2 2 0 0 1 2-2z" fill="#f9e109" transform="matrix(.707 .707 -.707 .707 26.245 -36.148)"/><path d="m46.163 5.841-2.841-2.841a44.651 44.651 0 0 0 -12.012 21.883l-.008.037 1.854-1.491a12.457 12.457 0 0 1 3.281-1.887 44.646 44.646 0 0 1 9.726-15.701z" fill="#d0d8da"/><path d="m56.05 13.728-2.535-2.536-1 1 5.657 5.657 1.414-1.414a2 2 0 0 0 .321-2.392 3 3 0 0 1 -3.857-.315z" fill="#fcbc04"/><path d="m58 17.678-.6.6a4.329 4.329 0 0 1 -6.121 0l-3.779-3.778a4.327 4.327 0 0 0 -6.121 0 4.414 4.414 0 0 1 -2.679 1.241 12.457 12.457 0 0 0 -4.967 1.614 44.546 44.546 0 0 0 -2.419 7.528l-.008.037 1.854-1.491a12.47 12.47 0 0 1 8.04-2.751l4.243-4.243 9.9 9.9 5.657-5.657z" fill="#656b76"/><path d="m38.7 15.741a12.457 12.457 0 0 0 -4.967 1.614 44.546 44.546 0 0 0 -2.419 7.528l-.008.037 1.854-1.491a12.457 12.457 0 0 1 3.281-1.887 44.656 44.656 0 0 1 2.62-5.867c-.124.025-.242.053-.361.066z" fill="#93999a"/></g><g><path d="m29 16.5h6v31h-6z" fill="#f9e109" transform="matrix(.707 -.707 .707 .707 -13.255 32)"/><path d="m40.121 35.879-.121.121a3 3 0 0 1 -4.243 0l-8.717-8.718a3 3 0 0 1 0-4.242l.121-.121-4-4-4.242 4.242 21.92 21.92 4.242-4.242z" fill="#fcbc04"/><path d="m26.846 12.7-5.657 8.485-8.489 5.661-6.185-6.189a12 12 0 0 1 -3.332-10.571l1.035-5.868 5.868-1.035a12 12 0 0 1 10.571 3.332z" fill="#93999a"/><path d="m21.189 12.189-1.2.8a10.676 10.676 0 0 1 -13.474-1.332 11.971 11.971 0 0 1 -2.815-4.5l-.517 2.929a12 12 0 0 0 3.332 10.571l6.185 6.189 8.485-5.657 5.661-8.489-3.6-3.6z" fill="#656b76"/><path d="m39.444 39.444h8v8h-8z" fill="#d0d8da" transform="matrix(-.707 .707 -.707 -.707 104.882 43.444)"/><path d="m26.139 20.482-5.657 5.657-4.021-4.021a8 8 0 0 1 -2.343-5.657v-2.343h2.343a8 8 0 0 1 5.657 2.343z" fill="#d0d8da"/><path d="m23.984 18.327a5.667 5.667 0 0 1 -7.641-.327 7.992 7.992 0 0 1 -2.136-3.882h-.089v2.343a8 8 0 0 0 2.343 5.657l4.021 4.021 5.657-5.657z" fill="#93999a"/><path d="m46.6 40.944-1.329 1.328a4 4 0 0 1 -5.657 0l-.328-.328-1.5 1.5 5.658 5.656 5.656-5.656z" fill="#93999a"/><path d="m44.151 44.151a2.007 2.007 0 0 1 .781-.484l6.368-2.121a2 2 0 0 1 2.047.483l7.067 7.071a2 2 0 0 1 -2.828 2.828l-6.2-6.2-4.243 1.414-1.414 4.243 6.2 6.2a2 2 0 0 1 -2.829 2.829l-7.072-7.071a2 2 0 0 1 -.483-2.047l2.121-6.364a2.007 2.007 0 0 1 .485-.781z" fill="#57b7eb"/><path d="m49.343 51.343h8v4h-8z" fill="#f9e109" transform="matrix(-.707 .707 -.707 -.707 128.782 53.343)"/><path d="m60.414 51.929a2 2 0 0 0 0-2.828l-.986-.986a3.531 3.531 0 0 1 -3.788-.789l-3.3-3.3a2 2 0 0 0 -2.047-.483l-6.364 2.121a1.978 1.978 0 0 0 -.631.365l-1.752 5.271a2 2 0 0 0 .483 2.047l7.071 7.067a2 2 0 0 0 2.828-2.828l-6.2-6.2 1.414-4.243 4.243-1.414 6.2 6.2a2 2 0 0 0 2.829 0z" fill="#4891d3"/><path d="m54.757 49.1-1.5 1.5.415.414a2 2 0 0 1 0 2.828l-.329.329a2 2 0 0 1 -2.828 0l-.414-.415-1 1 2.828 2.829 5.657-5.657z" fill="#fcbc04"/></g></g></g><g id="Outline_copy" data-name="Outline copy"><path d="m54.051 41.323a2.977 2.977 0 0 0 -3.071-.723l-2.483.827-4.347-4.347a1 1 0 0 0 -1.414 0l-5.822-5.822 10.969-10.97 2.829 2.829-9.177 9.176a1 1 0 1 0 1.414 1.414l9.177-9.175 2.51 2.51a1 1 0 0 0 1.414 0l1.082-1.082a1 1 0 0 0 -1.414-1.414l-.375.375-9.193-9.193a1.029 1.029 0 0 0 -1.414 0l-3.948 3.949a13.389 13.389 0 0 0 -2.66.314 43.494 43.494 0 0 1 6.309-10.67 1 1 0 0 0 -1.558-1.254 45.506 45.506 0 0 0 -7.215 12.7 13.444 13.444 0 0 0 -2.652 1.509 43.569 43.569 0 0 1 10.318-17.854l16.256 16.256-1.04 1.04a1 1 0 0 0 1.414 1.414l1.747-1.747a1 1 0 0 0 0-1.414l-2.121-2.121.707-.707a3 3 0 0 0 0-4.244l-2.828-2.828a3 3 0 0 0 -4.243 0l-.707.707-8.486-8.485a1 1 0 0 0 -1.414 0 45.608 45.608 0 0 0 -12.282 22.383l-3.487-3.488a1 1 0 0 0 0-1.414l-2.108-2.107 2.94-4.409a1 1 0 0 0 -.125-1.258l-2.361-2.36a1 1 0 0 0 -1.414 1.414l1.781 1.781-2.259 3.39-.471-.471a8.941 8.941 0 0 0 -6.364-2.636h-2.347a1 1 0 0 0 -1 1v2.343a8.943 8.943 0 0 0 2.636 6.364l.471.471-3.394 2.263-5.609-5.609a11.013 11.013 0 0 1 -3.055-9.69l.915-5.178 5.178-.915a11.024 11.024 0 0 1 9.69 3.055l1 1a1 1 0 0 0 1.415-1.414l-1-1a13 13 0 0 0 -11.452-3.608l-5.869 1.034a1 1 0 0 0 -.811.811l-1.033 5.867a13.012 13.012 0 0 0 3.61 11.452l6.19 6.189a1 1 0 0 0 1.261.125l4.409-2.94 2.108 2.108a1 1 0 0 0 1.414 0l4.24-4.246 15.89 15.891-2.828 2.828-13.971-13.967a1 1 0 0 0 -1.414 1.414l6.734 6.734-8.257 8.258a1 1 0 1 0 1.414 1.414l8.258-8.258 2.828 2.828-19.672 19.672a2.047 2.047 0 0 1 -2.828 0 2 2 0 0 1 0-2.828l8.585-8.586a1 1 0 0 0 -1.414-1.414l-8.585 8.586a4 4 0 1 0 5.656 5.656l19.672-19.672 1.58 1.58a1 1 0 0 0 0 1.414l4.345 4.35-.825 2.481a2.985 2.985 0 0 0 .725 3.069l2.9 2.9a1 1 0 0 0 1.414-1.414l-2.9-2.9a1 1 0 0 1 -.242-1.023l2.121-6.364a1 1 0 0 1 .634-.634l6.363-2.12a.993.993 0 0 1 1.024.241l7.071 7.072a1 1 0 0 1 -1.414 1.414l-6.2-6.2a1 1 0 0 0 -1.024-.241l-4.242 1.419a.994.994 0 0 0 -.632.632l-1.414 4.242a1 1 0 0 0 .241 1.024l6.2 6.2a1 1 0 0 1 0 1.414 1.022 1.022 0 0 1 -1.413 0l-1.343-1.343a1 1 0 0 0 -1.414 1.414l1.343 1.343a2.992 2.992 0 0 0 4.819-3.405l4.5-4.5a2.993 2.993 0 0 0 3.405-4.818zm.585-29.838a1 1 0 0 1 1.415 0l2.828 2.828a1 1 0 0 1 0 1.415l-.707.707-4.243-4.243zm-34.154 13.24-3.314-3.314a6.956 6.956 0 0 1 -2.05-4.95v-1.343h1.343a6.954 6.954 0 0 1 4.95 2.05l3.314 3.313zm11.446.974 1.855-1.491a11.6 11.6 0 0 1 7.4-2.53 1.035 1.035 0 0 0 .725-.293l3.535-3.536 1.026 1.025-10.969 10.97-3.963-3.964a.971.971 0 0 0 .391-.18zm12.688 17.02a2.992 2.992 0 0 0 -1.9 1.9l-.587 1.759-2.929-2.935 4.243-4.243 2.932 2.931zm5.9 12.038 4.242-4.242 1.415 1.414-4.243 4.243zm-2.578-6.819 3.181-1.061 2.224 2.223-4.243 4.243-2.224-2.225z" fill="#323232"/></g></g></svg>