<?xml version="1.0" encoding="iso-8859-1"?>
<!-- Generator: Adobe Illustrator 19.0.0, SVG Export Plug-In . SVG Version: 6.00 Build 0)  -->
<svg version="1.1" id="Layer_1" xmlns="http://www.w3.org/2000/svg" xmlns:xlink="http://www.w3.org/1999/xlink" x="0px" y="0px"
	 viewBox="0 0 512 512" style="enable-background:new 0 0 512 512;" xml:space="preserve">
<rect x="156.81" y="327.02" style="fill:#CCCCCC;" width="141.13" height="48.912"/>
<rect x="268.52" y="327.02" style="fill:#B3B3B3;" width="29.42" height="48.912"/>
<path style="fill:#686868;" d="M396.821,458.177H66.539c-25.122,0-45.487-20.365-45.487-45.487v-0.022
	c0-25.122,20.365-45.487,45.487-45.487H396.82c25.122,0,45.487,20.365,45.487,45.487v0.022
	C442.307,437.812,421.942,458.177,396.821,458.177z"/>
<path style="fill:#4F4F4F;" d="M396.832,367.182h-29.118c25.115,0,45.476,20.37,45.476,45.498l0,0
	c0,25.128-20.36,45.498-45.476,45.498h29.118c25.115,0,45.476-20.37,45.476-45.498l0,0
	C442.307,387.552,421.947,367.182,396.832,367.182z"/>
<g>
	<ellipse style="fill:#B3B3B3;" cx="73.6" cy="412.68" rx="20.91" ry="20.92"/>
	<ellipse style="fill:#B3B3B3;" cx="389.76" cy="412.68" rx="20.91" ry="20.92"/>
	<path style="fill:#B3B3B3;" d="M350.827,399.656H112.533c1.278,4.114,1.966,8.488,1.966,13.023s-0.689,8.909-1.966,13.023h238.294
		c-1.278-4.114-1.967-8.488-1.967-13.023C348.861,408.145,349.55,403.771,350.827,399.656z"/>
</g>
<path style="fill:#CCCCCC;" d="M489.049,303.405l-17.293,7.474c-6.706,2.898-14.323,2.835-20.98-0.174l-67.846-30.663
	c-4.296-1.942-4.246-8.063,0.082-9.933l101.077-43.683l18.496,42.839C508.271,282.432,502.21,297.717,489.049,303.405z"/>
<path style="fill:#B3B3B3;" d="M502.586,269.265l-18.496-42.839l-26.062,11.263l13.633,31.576
	c5.685,13.167-0.375,28.452-13.536,34.14l-12.013,5.192l4.665,2.108c6.657,3.009,14.274,3.072,20.98,0.174l17.293-7.474
	C502.21,297.717,508.271,282.432,502.586,269.265z"/>
<path style="fill:#FFCC5A;" d="M452.094,150.101l-11.699-27.947l-23.494-56.127c-4.224-10.091-15.798-14.878-25.911-10.717l0,0
	c-10.813,4.449-15.477,17.225-10.074,27.599L460.9,236.483l23.149-10.04L452.094,150.101z"/>
<path style="fill:#CCCCCC;" d="M286.293,183.031v-25.709c0-19.192-15.551-34.751-34.734-34.751h-30.386
	c-6.602,0-11.954,5.355-11.954,11.96v48.499h77.074V183.031z"/>
<path style="fill:#B3B3B3;" d="M251.559,122.571h-29.118c19.183,0,34.734,15.558,34.734,34.751v25.709h29.118v-25.709
	C286.293,138.13,270.742,122.571,251.559,122.571z"/>
<path style="fill:#FFA227;" d="M286.293,157.322v1.271l104.892-55.969l-10.268-19.715c-1.53-2.937-2.251-6.067-2.256-9.146
	l-120.27,49.484C274.301,126.423,286.293,140.47,286.293,157.322z"/>
<path style="fill:#FFCC5A;" d="M291.472,174.281H181.559c-5.441,0-9.852,4.413-9.852,9.857v42.634c0,5.444-4.411,9.857-9.852,9.857
	H17.139c-5.441,0-9.852,4.413-9.852,9.857v79.425c0,5.444,4.411,9.857,9.852,9.857h297.862c5.719,0,10.355-4.638,10.355-10.36
	v-90.94c0-2.637-0.601-5.239-1.758-7.609l-22.822-46.763C299.04,176.538,295.429,174.281,291.472,174.281z"/>
<path style="fill:#FFB000;" d="M323.599,226.859l-22.822-46.763c-1.736-3.558-5.348-5.815-9.305-5.815h-29.118
	c3.958,0,7.569,2.257,9.305,5.815l22.822,46.763c1.156,2.37,1.758,4.972,1.758,7.609v59.5c0,7.025-5.692,12.72-12.714,12.72H17.139
	c-5.441,0-9.853-4.413-9.853-9.857v29.08c0,5.444,4.411,9.857,9.853,9.857h268.743H315c5.719,0,10.355-4.639,10.355-10.36v-29.08
	v-61.86C325.356,231.831,324.755,229.229,323.599,226.859z"/>
<path style="fill:#AEFFFF;" d="M278.107,198.957h-76.676c-1.188,0-2.15,0.963-2.15,2.151v35.316c0,0.575,0.23,1.126,0.639,1.531
	l26.478,26.165c0.402,0.398,0.945,0.621,1.511,0.621h67.548c1.188,0,2.15-0.963,2.15-2.151v-25.93c0-0.327-0.075-0.65-0.218-0.944
	l-17.35-35.552C279.679,199.425,278.929,198.957,278.107,198.957z"/>
<path style="fill:#84F1F7;" d="M297.39,235.716l-17.35-35.552c-0.361-0.739-1.11-1.207-1.932-1.207H248.99
	c0.822,0,1.572,0.469,1.932,1.207l17.35,35.552c0.143,0.294,0.218,0.617,0.218,0.944v25.929c0,1.188-0.963,2.151-2.15,2.151h29.118
	c1.187,0,2.15-0.963,2.15-2.151V236.66C297.608,236.333,297.533,236.01,297.39,235.716z"/>
<g>
	<path style="fill:#051C1B;" d="M45.401,412.679c0,15.553,12.649,28.207,28.197,28.207s28.197-12.654,28.197-28.207
		s-12.649-28.207-28.197-28.207S45.401,397.126,45.401,412.679z M73.598,399.045c7.512,0,13.624,6.116,13.624,13.634
		s-6.111,13.634-13.624,13.634c-7.512,0-13.624-6.116-13.624-13.634S66.085,399.045,73.598,399.045z"/>
	<path style="fill:#051C1B;" d="M389.763,440.887c15.548,0,28.197-12.654,28.197-28.207s-12.649-28.207-28.197-28.207
		s-28.197,12.654-28.197,28.207S374.215,440.887,389.763,440.887z M389.763,399.045c7.512,0,13.624,6.116,13.624,13.634
		s-6.111,13.634-13.624,13.634c-7.512,0-13.624-6.116-13.624-13.634S382.25,399.045,389.763,399.045z"/>
	<path style="fill:#051C1B;" d="M106.666,430.023c1.374,1.865,3.551,2.966,5.867,2.966h238.295c2.316,0,4.493-1.101,5.867-2.966
		c1.373-1.864,1.778-4.27,1.091-6.482c-1.087-3.501-1.639-7.155-1.639-10.862s0.551-7.361,1.639-10.862
		c0.687-2.212,0.282-4.618-1.091-6.482c-1.374-1.865-3.551-2.966-5.867-2.966H112.533c-2.316,0-4.493,1.101-5.867,2.966
		c-1.373,1.864-1.778,4.27-1.091,6.482c1.087,3.501,1.639,7.155,1.639,10.862s-0.551,7.361-1.639,10.862
		C104.888,425.753,105.293,428.159,106.666,430.023z M121.468,406.943h220.425c-0.213,1.898-0.319,3.813-0.319,5.736
		s0.106,3.838,0.319,5.736H121.468c0.213-1.898,0.319-3.813,0.319-5.736C121.786,410.756,121.68,408.841,121.468,406.943z"/>
	<path style="fill:#051C1B;" d="M304.894,262.589V236.66c0-1.425-0.329-2.855-0.955-4.14l-17.351-35.555
		c-1.571-3.216-4.9-5.295-8.48-5.295h-76.676c-5.203,0-9.437,4.233-9.437,9.438v35.316c0,2.506,1.022,4.953,2.804,6.714
		l26.479,26.165c1.778,1.756,4.133,2.724,6.633,2.724h67.547C300.661,272.027,304.894,267.793,304.894,262.589z M290.321,257.454
		h-60.302l-23.451-23.174v-28.036h68.331l15.421,31.6v19.61H290.321z"/>
	<path style="fill:#051C1B;" d="M509.276,266.376l-18.496-42.838c-0.094-0.218-0.199-0.431-0.313-0.637l-27.174-64.918
		c-1.553-3.713-5.826-5.463-9.534-3.908c-3.713,1.553-5.462,5.823-3.908,9.534l24.697,59.002l-10.331,4.464L397.654,99.272
		c-0.003-0.005-0.004-0.01-0.007-0.014l-10.269-19.716c-0.223-0.428-0.416-0.865-0.587-1.307c-0.054-0.139-0.094-0.281-0.143-0.422
		c-0.108-0.311-0.211-0.624-0.294-0.942c-0.039-0.149-0.068-0.3-0.102-0.449c-0.072-0.327-0.136-0.656-0.182-0.989
		c-0.018-0.128-0.032-0.256-0.045-0.384c-0.039-0.371-0.063-0.745-0.069-1.122c-0.024-1.523,0.217-3.056,0.76-4.543
		c1.23-3.367,3.732-5.974,7.046-7.337c6.383-2.626,13.749,0.42,16.417,6.793l28.31,67.629c1.554,3.714,5.827,5.464,9.534,3.908
		c3.713-1.553,5.462-5.823,3.908-9.534l-28.31-67.63c-5.751-13.738-21.631-20.306-35.406-14.643
		c-7.04,2.897-12.576,8.661-15.188,15.814c-0.514,1.406-0.902,2.845-1.174,4.299l-114.314,47.034
		c-1.955-0.28-3.95-0.433-5.981-0.433h-30.386c-10.609,0-19.241,8.634-19.241,19.246v32.463h-20.374
		c-9.451,0-17.139,7.691-17.139,17.144v42.634c0,1.417-1.151,2.57-2.566,2.57H17.139C7.688,229.343,0,237.034,0,246.487v18.978
		c0,4.025,3.262,7.287,7.287,7.287s7.287-3.262,7.287-7.287v-18.978c0-1.417,1.151-2.571,2.565-2.571h144.715
		c9.451,0,17.14-7.691,17.14-17.143v-42.634c0-1.417,1.151-2.57,2.566-2.57h27.661h77.073h5.179c1.163,0,2.246,0.676,2.756,1.723
		l22.822,46.763c0.667,1.367,1.02,2.894,1.02,4.414v90.941c0,1.695-1.377,3.073-3.069,3.073H17.139c-1.415,0-2.565-1.153-2.565-2.57
		V295.03c0-4.025-3.262-7.287-7.287-7.287S0,291.004,0,295.029v30.883c0,9.453,7.688,17.143,17.139,17.143h132.384v16.84H66.54
		c-29.1,0-52.774,23.674-52.774,52.796c0,29.099,23.674,52.773,52.774,52.773h330.28c29.099,0,52.773-23.674,52.773-52.795
		c0-29.1-23.674-52.774-52.773-52.774h-91.594v-16.84H315c9.728,0,17.643-7.917,17.643-17.646v-90.941
		c0-3.722-0.863-7.458-2.496-10.805L307.325,176.9c-2.625-5.379-7.879-9.048-13.746-9.767v-4.17l94.542-50.446l62.683,120.356
		l-70.683,30.547c-4.689,2.027-7.627,6.46-7.67,11.568c-0.042,5.108,2.824,9.588,7.478,11.693l67.846,30.664
		c4.331,1.956,8.937,2.949,13.688,2.949c4.561,0,8.996-0.917,13.183-2.727l17.293-7.474
		C508.767,302.821,516.543,283.21,509.276,266.376z M435.02,412.691c0,21.064-17.136,38.2-38.2,38.2H66.54
		c-21.064,0-38.201-17.136-38.201-38.222c0-21.064,17.137-38.201,38.201-38.201h330.28
		C417.884,374.468,435.02,391.605,435.02,412.691z M290.653,359.895H164.096v-16.84h126.557L290.653,359.895L290.653,359.895z
		 M216.506,166.995v-32.463c0-2.577,2.094-4.673,4.668-4.673h30.386c1.868,0,3.692,0.189,5.456,0.547
		c0.684,0.138,1.355,0.31,2.018,0.497c0.158,0.045,0.317,0.087,0.473,0.135c0.604,0.182,1.197,0.388,1.781,0.61
		c0.204,0.078,0.406,0.158,0.608,0.24c0.55,0.224,1.093,0.462,1.623,0.72c0.21,0.102,0.415,0.212,0.622,0.319
		c0.433,0.224,0.859,0.459,1.277,0.705c0.253,0.148,0.502,0.301,0.749,0.457c0.407,0.257,0.806,0.524,1.198,0.802
		c0.183,0.13,0.369,0.257,0.549,0.391c0.473,0.353,0.932,0.723,1.38,1.104c0.157,0.133,0.312,0.267,0.466,0.404
		c0.463,0.413,0.915,0.838,1.348,1.28c0.1,0.102,0.197,0.207,0.296,0.311c0.472,0.496,0.932,1.003,1.365,1.533
		c0.005,0.007,0.01,0.014,0.016,0.02c0.479,0.586,0.934,1.193,1.364,1.817c0.007,0.01,0.015,0.021,0.022,0.031
		c0.428,0.624,0.831,1.266,1.207,1.924c0.011,0.02,0.023,0.039,0.034,0.059c1.508,2.651,2.582,5.566,3.143,8.64
		c0.014,0.076,0.028,0.153,0.041,0.229c0.124,0.712,0.22,1.431,0.287,2.158c0.009,0.096,0.014,0.192,0.022,0.288
		c0.061,0.741,0.099,1.488,0.099,2.241v1.27v8.402h-62.498V166.995z M292.32,147.117c-1.466-5.858-4.167-11.227-7.805-15.826
		c-0.077-0.098-0.153-0.197-0.231-0.294c-0.271-0.337-0.55-0.668-0.831-0.997c-0.146-0.171-0.293-0.341-0.442-0.51
		c-0.242-0.274-0.488-0.545-0.737-0.812c-0.209-0.225-0.421-0.446-0.634-0.666c-0.209-0.215-0.419-0.429-0.633-0.64
		c-0.285-0.281-0.575-0.555-0.868-0.828c-0.159-0.148-0.316-0.298-0.477-0.443c-0.413-0.373-0.834-0.737-1.262-1.094
		c-0.052-0.043-0.102-0.089-0.155-0.132c-0.522-0.432-1.053-0.854-1.596-1.261l96.684-39.78c0.096,0.24,0.203,0.475,0.306,0.711
		c0.071,0.163,0.136,0.328,0.211,0.491c0.191,0.418,0.392,0.831,0.604,1.239l6.935,13.316L292.32,147.117z M486.159,296.716
		l-17.293,7.474c-4.8,2.075-10.322,2.029-15.087-0.124l-64.02-28.934l73.439-31.737c0.202-0.067,0.404-0.139,0.604-0.225
		l16.492-7.154l15.603,36.138C499.979,281.611,495.611,292.63,486.159,296.716z"/>
	<path style="fill:#051C1B;" d="M220.678,279.435h-17.837c-4.025,0-7.287,3.262-7.287,7.287s3.262,7.287,7.287,7.287h17.837
		c4.025,0,7.287-3.262,7.287-7.287C227.964,282.696,224.702,279.435,220.678,279.435z"/>
	<path style="fill:#051C1B;" d="M41.541,306.09c2.701,0,5.297-1.509,6.558-4.101l18.095-37.195c1.761-3.619,0.254-7.98-3.364-9.74
		c-3.62-1.764-7.98-0.254-9.74,3.364l-18.095,37.195c-1.761,3.619-0.254,7.98,3.364,9.74
		C39.386,305.853,40.472,306.09,41.541,306.09z"/>
	<path style="fill:#051C1B;" d="M77.79,306.09c2.701,0,5.297-1.509,6.558-4.101l18.095-37.195c1.761-3.619,0.254-7.98-3.364-9.74
		c-3.62-1.764-7.98-0.254-9.74,3.364l-18.095,37.195c-1.761,3.619-0.254,7.98,3.364,9.74C75.635,305.853,76.721,306.09,77.79,306.09
		z"/>
	<path style="fill:#051C1B;" d="M114.039,306.09c2.701,0,5.297-1.509,6.558-4.101l18.095-37.195c1.761-3.619,0.254-7.98-3.364-9.74
		c-3.621-1.764-7.98-0.254-9.74,3.364l-18.095,37.195c-1.761,3.619-0.254,7.98,3.364,9.74
		C111.883,305.853,112.969,306.09,114.039,306.09z"/>
</g>
<g>
</g>
<g>
</g>
<g>
</g>
<g>
</g>
<g>
</g>
<g>
</g>
<g>
</g>
<g>
</g>
<g>
</g>
<g>
</g>
<g>
</g>
<g>
</g>
<g>
</g>
<g>
</g>
<g>
</g>
</svg>
